Coordinates
version=1
nRows=34
nColumns=38
inDegrees=no

Units are S.I. units (second, meters, Newtons, ...)
If the header above contains a line with 'inDegrees', this indicates whether rotational values are in degrees (yes) or radians (no).

endheader
time	pelvis_tilt	pelvis_list	pelvis_rotation	pelvis_tx	pelvis_ty	pelvis_tz	hip_flexion_r	hip_adduction_r	hip_rotation_r	knee_angle_r	ankle_angle_r	subtalar_angle_r	mtp_angle_r	hip_flexion_l	hip_adduction_l	hip_rotation_l	knee_angle_l	ankle_angle_l	subtalar_angle_l	mtp_angle_l	lumbar_extension	lumbar_bending	lumbar_rotation	arm_flex_r	arm_add_r	arm_rot_r	elbow_flex_r	pro_sup_r	wrist_flex_r	wrist_dev_r	arm_flex_l	arm_add_l	arm_rot_l	elbow_flex_l	pro_sup_l	wrist_flex_l	wrist_dev_l
0.96	0.151363	1.31741	1.4036	0.964607	0.954691	1.01315	-0.0221686	0.0434003	-0.140054	0.341819	-0.133165	0	0	0.52355	-0.0741372	-0.20886	0.0214097	-0.294951	0	0	0.114604	0.0326337	0.124174	-0.205538	-0.348112	-0.0359547	0.986293	1.52315	0	0	-0.194574	-0.11636	-0.331327	0.442658	0.934979	0	0
0.97	0.133571	1.31798	1.42169	0.963893	0.968638	1.0124	-0.0207523	0.0347714	-0.137515	0.370366	-0.144356	0	0	0.529631	-0.0683401	-0.214766	0.049505	-0.314743	0	0	0.116902	0.0240231	0.121645	-0.207194	-0.342813	-0.0335862	0.972411	1.52244	0	0	-0.197599	-0.118972	-0.33462	0.43933	0.93864	0	0
0.98	0.109678	1.31621	1.44564	0.963331	0.98253	1.01193	-0.0131666	0.0248572	-0.133606	0.405646	-0.159839	0	0	0.53796	-0.0628588	-0.221422	0.0786466	-0.32831	0	0	0.122843	0.0134088	0.118666	-0.207106	-0.336328	-0.0283199	0.952804	1.52021	0	0	-0.200881	-0.121181	-0.342138	0.434655	0.937168	0	0
0.99	0.0827707	1.31623	1.4722	0.962812	0.996289	1.01204	-0.0042076	0.0138709	-0.12615	0.446635	-0.172168	0	0	0.542149	-0.0586144	-0.228483	0.107669	-0.332417	0	0	0.124783	0.00151976	0.119817	-0.209313	-0.327197	-0.0305962	0.93341	1.51811	0	0	-0.200875	-0.125961	-0.337316	0.427905	0.925138	0	0
1	0.0528031	1.3126	1.50206	0.962345	1.0101	1.0122	0.0122089	0.00144516	-0.116859	0.493449	-0.203855	0	0	0.549522	-0.0557537	-0.239617	0.140767	-0.324419	0	0	0.135323	-0.0115619	0.113613	-0.204583	-0.320834	-0.0151319	0.90314	1.50878	0	0	-0.206667	-0.12577	-0.36203	0.422771	0.928918	0	0
1.01	0.020081	1.31068	1.53629	0.961675	1.02378	1.01278	0.0296849	-0.0132183	-0.109073	0.544296	-0.235245	0	0	0.553155	-0.0505581	-0.245991	0.172207	-0.311426	0	0	0.141351	-0.0254494	0.108736	-0.20274	-0.313325	-0.00588779	0.875821	1.4984	0	0	-0.21037	-0.127718	-0.374771	0.418084	0.925954	0	0
1.02	-0.01432	1.30842	1.57344	0.960879	1.03727	1.01353	0.0495015	-0.0289686	-0.101583	0.596973	-0.272028	0	0	0.556826	-0.0437074	-0.250983	0.204795	-0.297303	0	0	0.145872	-0.0402986	0.102445	-0.200677	-0.306836	0.00588388	0.848934	1.48382	0	0	-0.214813	-0.13013	-0.386483	0.416019	0.926738	0	0
1.03	-0.0473533	1.30716	1.61015	0.959987	1.05051	1.0144	0.0696455	-0.0443612	-0.0953433	0.65049	-0.303763	0	0	0.557299	-0.035019	-0.251835	0.232993	-0.286663	0	0	0.146982	-0.0549617	0.0969744	-0.20035	-0.301511	0.0175641	0.825087	1.46517	0	0	-0.21804	-0.133887	-0.393264	0.414642	0.931488	0	0
1.04	-0.0782859	1.30666	1.64293	0.95909	1.06346	1.01521	0.0913389	-0.0589656	-0.0887676	0.705068	-0.349607	0	0	0.555327	-0.0263688	-0.25495	0.258013	-0.268158	0	0	0.144708	-0.0682228	0.0971312	-0.205342	-0.287652	0.00178799	0.804611	1.48709	0	0	-0.217779	-0.137426	-0.397322	0.413419	0.935227	0	0
1.05	-0.104246	1.30687	1.66838	0.958229	1.07607	1.01588	0.114786	-0.0715557	-0.0810223	0.760416	-0.387994	0	0	0.551409	-0.0191616	-0.259051	0.279305	-0.252924	0	0	0.141092	-0.0790609	0.0981468	-0.208668	-0.284058	0.00782502	0.787059	1.47753	0	0	-0.217683	-0.139282	-0.403428	0.413677	0.938241	0	0
1.06	-0.123456	1.30759	1.68426	0.95757	1.08842	1.01639	0.140271	-0.0815027	-0.0723612	0.81509	-0.432731	0	0	0.545992	-0.0152915	-0.266126	0.298436	-0.235508	0	0	0.136824	-0.0867853	0.102134	-0.212844	-0.283608	0.0182146	0.772227	1.46551	0	0	-0.216791	-0.138857	-0.412411	0.415857	0.937404	0	0
1.07	-0.136607	1.30988	1.69133	0.957187	1.10056	1.01696	0.165865	-0.0887272	-0.0631751	0.867035	-0.482953	0	0	0.537078	-0.0148619	-0.27574	0.3145	-0.217673	0	0	0.131306	-0.0913831	0.10866	-0.216765	-0.285699	0.0332552	0.75863	1.4511	0	0	-0.21532	-0.137753	-0.419374	0.418502	0.937185	0	0
1.08	-0.144891	1.31348	1.69134	0.95709	1.11258	1.01776	0.190883	-0.0934512	-0.053638	0.914792	-0.53577	0	0	0.52424	-0.0165448	-0.285922	0.32599	-0.199333	0	0	0.1254	-0.0933639	0.116245	-0.21915	-0.289866	0.0544578	0.744275	1.43363	0	0	-0.214118	-0.136876	-0.422562	0.420333	0.941945	0	0
1.09	-0.150884	1.3181	1.68767	0.957285	1.12448	1.01884	0.215058	-0.0964903	-0.0434171	0.959978	-0.564316	0	0	0.507997	-0.0189215	-0.295208	0.332265	-0.189279	0	0	0.115639	-0.0930761	0.12991	-0.228565	-0.276988	0.0225997	0.732877	1.49035	0	0	-0.210399	-0.143521	-0.383952	0.419891	0.922927	0	0
1.1	-0.152228	1.32147	1.67873	0.957621	1.13637	1.02008	0.240348	-0.0978593	-0.0330118	1.00147	-0.584965	0	0	0.491694	-0.0220738	-0.304931	0.335017	-0.173387	0	0	0.113991	-0.0929374	0.130935	-0.218306	-0.298545	0.104665	0.710605	1.40554	0	0	-0.213799	-0.137224	-0.41862	0.422319	0.96069	0	0
1.11	-0.1536	1.32559	1.67111	0.958083	1.1482	1.02157	0.263607	-0.0983741	-0.0243257	1.03928	-0.577097	0	0	0.473445	-0.024497	-0.313413	0.334274	-0.164504	0	0	0.107128	-0.0924336	0.139301	-0.220299	-0.292665	0.10235	0.692433	1.4302	0	0	-0.211398	-0.138707	-0.412613	0.421683	0.962716	0	0
1.12	-0.154056	1.33006	1.66493	0.958479	1.16006	1.02334	0.284633	-0.0982457	-0.0173016	1.07272	-0.551969	0	0	0.454033	-0.0261735	-0.321057	0.330961	-0.156781	0	0	0.101077	-0.0921502	0.143189	-0.219294	-0.288173	0.108553	0.671341	1.44877	0	0	-0.209853	-0.140125	-0.410943	0.419328	0.962847	0	0
1.13	-0.152682	1.33417	1.65929	0.95869	1.17186	1.02523	0.305166	-0.0983705	-0.0133899	1.10345	-0.512642	0	0	0.434916	-0.0273772	-0.327107	0.326537	-0.150611	0	0	0.0964443	-0.0919394	0.14322	-0.216179	-0.284663	0.120753	0.64781	1.46477	0	0	-0.20976	-0.140953	-0.413444	0.417177	0.958688	0	0
1.14	-0.146641	1.33804	1.65209	0.958579	1.18365	1.02718	0.324726	-0.0982716	-0.0131071	1.13007	-0.470634	0	0	0.41635	-0.0284059	-0.330139	0.321579	-0.146518	0	0	0.092613	-0.0907695	0.139789	-0.213254	-0.282349	0.135752	0.625097	1.47614	0	0	-0.21013	-0.141286	-0.417542	0.414664	0.951272	0	0
1.15	-0.136234	1.34284	1.64247	0.958204	1.19539	1.02921	0.342362	-0.0980044	-0.0159667	1.15195	-0.42894	0	0	0.396708	-0.029264	-0.33187	0.315608	-0.143457	0	0	0.0877714	-0.0881528	0.134328	-0.21105	-0.281622	0.151961	0.604571	1.485	0	0	-0.210849	-0.141337	-0.420594	0.41256	0.943324	0	0
1.16	-0.12026	1.34839	1.62886	0.957659	1.20709	1.03131	0.357978	-0.0969311	-0.0211351	1.16783	-0.389287	0	0	0.376426	-0.0305859	-0.3323	0.30952	-0.140823	0	0	0.0819135	-0.083768	0.127246	-0.2098	-0.282146	0.167717	0.586741	1.49258	0	0	-0.211323	-0.141578	-0.420836	0.40964	0.93732	0	0
1.17	-0.0991978	1.35353	1.61124	0.957006	1.21874	1.0334	0.372787	-0.0949962	-0.0275475	1.1773	-0.352689	0	0	0.356624	-0.0322864	-0.331329	0.303542	-0.138453	0	0	0.0764727	-0.0779212	0.119289	-0.209664	-0.283334	0.181651	0.571015	1.4993	0	0	-0.211012	-0.141914	-0.419782	0.40461	0.933224	0	0
1.18	-0.0729587	1.35644	1.58928	0.956352	1.23037	1.03532	0.389009	-0.0923461	-0.0349948	1.18113	-0.317915	0	0	0.33928	-0.0345497	-0.328426	0.297923	-0.135926	0	0	0.078979	-0.0723829	0.0998492	-0.191787	-0.30723	0.30414	0.548618	1.38118	0	0	-0.218889	-0.136298	-0.454303	0.403062	0.951487	0	0
1.19	-0.0455144	1.36005	1.56575	0.955795	1.24185	1.03723	0.403672	-0.0890911	-0.0423184	1.1799	-0.282975	0	0	0.320972	-0.0372281	-0.325425	0.292148	-0.132882	0	0	0.0735696	-0.0656261	0.0955978	-0.198741	-0.300363	0.280373	0.536454	1.42171	0	0	-0.216823	-0.138775	-0.442093	0.397555	0.939696	0	0
1.2	-0.0176623	1.36227	1.54025	0.955386	1.25319	1.03895	0.419631	-0.0849549	-0.0478684	1.17362	-0.274045	0	0	0.303867	-0.0407922	-0.325466	0.2862	-0.132302	0	0	0.0701199	-0.0588967	0.0926763	-0.204364	-0.299175	0.276416	0.527353	1.42544	0	0	-0.214495	-0.137733	-0.448931	0.3929	0.946588	0	0
1.21	0.00875915	1.36396	1.51594	0.955089	1.26442	1.04054	0.435429	-0.08107	-0.053785	1.16368	-0.253753	0	0	0.286803	-0.0441038	-0.324737	0.278735	-0.131076	0	0	0.067149	-0.0524167	0.0893663	-0.209712	-0.29685	0.267138	0.517791	1.43497	0	0	-0.213523	-0.137851	-0.447743	0.38919	0.944525	0	0
1.22	0.033111	1.36505	1.49361	0.95487	1.27557	1.04197	0.451012	-0.0776335	-0.0599353	1.14994	-0.233912	0	0	0.270189	-0.0472755	-0.324132	0.270789	-0.130424	0	0	0.0647855	-0.0466339	0.0866518	-0.214812	-0.294489	0.258269	0.508075	1.44048	0	0	-0.213599	-0.137904	-0.445797	0.387912	0.942059	0	0
1.23	0.0550158	1.36561	1.47333	0.954763	1.28662	1.04326	0.466156	-0.0742455	-0.0654404	1.13214	-0.214406	0	0	0.25387	-0.0501944	-0.323867	0.26216	-0.13041	0	0	0.0628065	-0.0413733	0.0843804	-0.219362	-0.292215	0.249565	0.498522	1.44244	0	0	-0.213687	-0.137796	-0.443865	0.387202	0.938409	0	0
1.24	0.0742128	1.36585	1.45579	0.954703	1.29761	1.04442	0.480419	-0.0712113	-0.0705887	1.11045	-0.195548	0	0	0.237328	-0.0523067	-0.323184	0.252202	-0.131094	0	0	0.0610732	-0.0364986	0.0820838	-0.223796	-0.290188	0.24041	0.489908	1.44077	0	0	-0.213216	-0.137632	-0.441801	0.385794	0.934817	0	0
1.25	0.0914341	1.36538	1.44101	0.954625	1.30865	1.04541	0.494031	-0.069425	-0.0783776	1.0848	-0.17296	0	0	0.221105	-0.0537425	-0.321674	0.24131	-0.132903	0	0	0.0644543	-0.0329463	0.0708636	-0.213461	-0.307342	0.334844	0.476916	1.32016	0	0	-0.219269	-0.134579	-0.456962	0.387403	0.94028	0	0
1.26	0.106786	1.36507	1.42791	0.954594	1.3196	1.04621	0.506451	-0.0683348	-0.0874466	1.05506	-0.159232	0	0	0.204847	-0.0551721	-0.3226	0.231212	-0.133678	0	0	0.063286	-0.0287487	0.0696512	-0.220098	-0.303211	0.313002	0.470008	1.32994	0	0	-0.218359	-0.134569	-0.452658	0.387138	0.938006	0	0
1.27	0.121593	1.36464	1.41587	0.954569	1.33053	1.04683	0.51727	-0.0675227	-0.097809	1.0205	-0.146003	0	0	0.188524	-0.0564417	-0.323875	0.220747	-0.135334	0	0	0.0617538	-0.0251654	0.0671474	-0.22461	-0.299271	0.294552	0.462195	1.33536	0	0	-0.218446	-0.134616	-0.448166	0.388794	0.935861	0	0
1.28	0.137946	1.36386	1.40377	0.954537	1.34157	1.04728	0.526101	-0.0665941	-0.109332	0.980803	-0.134829	0	0	0.172489	-0.0579785	-0.32404	0.210092	-0.137062	0	0	0.0611898	-0.0213057	0.0628994	-0.228268	-0.295748	0.279238	0.453857	1.3375	0	0	-0.218796	-0.134738	-0.443931	0.390135	0.933545	0	0
1.29	0.153567	1.36229	1.39367	0.954455	1.35267	1.04751	0.53361	-0.0658976	-0.122002	0.935849	-0.125579	0	0	0.156817	-0.0589407	-0.321067	0.198377	-0.138871	0	0	0.0620377	-0.0174085	0.0574588	-0.231591	-0.292706	0.266393	0.445553	1.33683	0	0	-0.2192	-0.1349	-0.43966	0.390956	0.931422	0	0
